<svg enable-background="new 0 0 128 128" viewBox="0 0 128 128" xmlns="http://www.w3.org/2000/svg"><path clip-rule="evenodd" d="m53.814 9.798c.611 0 1.109.497 1.109 1.11 0 .617-.498 1.113-1.109 1.113-.616 0-1.114-.495-1.114-1.113 0-.613.498-1.11 1.114-1.11zm10.426 111.483c-3.561 0-6.457-2.897-6.457-6.457 0-3.559 2.896-6.455 6.457-6.455 3.56 0 6.455 2.896 6.455 6.455 0 3.56-2.895 6.457-6.455 6.457zm0-10.003c-1.956 0-3.548 1.59-3.548 3.545 0 1.957 1.592 3.548 3.548 3.548 1.955 0 3.545-1.592 3.545-3.548.001-1.954-1.59-3.545-3.545-3.545zm25.942-5.096h-52.364v-87.273h52.364zm6.982-83.913h-.436v-10.531c-.001-6.473-5.281-11.738-11.753-11.738h-41.95c-6.473 0-11.753 5.265-11.753 11.738v7.404h-.145c-.48 0-.873.393-.873.873v4.247c0 .48.393.873.873.873h.145v8.945h-.145c-.48 0-.873.393-.873.873v8.116c0 .48.393.873.873.873h.145v2.778h-.145c-.48 0-.873.393-.873.873v8.116c0 .48.393.873.873.873h.145v59.68c0 6.473 5.28 11.738 11.753 11.738h41.949c6.473 0 11.753-5.265 11.753-11.738v-84.131h.436c.32 0 .582-.262.582-.582v-8.698c0-.32-.261-.582-.581-.582zm-4.8 93.993c0 4.058-3.316 7.375-7.389 7.375h-41.95c-4.073 0-7.389-3.316-7.389-7.375v-104.524c0-4.058 3.316-7.375 7.389-7.375h41.949c4.073 0 7.389 3.316 7.389 7.375v104.524zm-17.064-106.08h-18.154v1.455h18.154z" fill="#1e1e1e" fill-rule="evenodd"/></svg>