<svg enable-background="new 0 0 128 128" viewBox="0 0 128 128" xmlns="http://www.w3.org/2000/svg"><path d="m123.33 61.866v-1.715h-11.273v-30.864c0-6.549-5.308-11.857-11.857-11.857h-71.798c-6.549 0-11.857 5.308-11.857 11.857v.274h-14.721c-1.003-.001-1.824.838-1.824 1.823v4.998c0 1.003.821 1.824 1.824 1.824h14.721v60.507c0 6.549 5.308 11.857 11.857 11.857h71.798c6.549 0 11.857-5.308 11.857-11.857v-29.788h11.273v-1.861h4.67v-5.199h-4.67zm-118.314-25.246c-1.514 0-2.736-1.222-2.736-2.736s1.222-2.736 2.736-2.736 2.736 1.222 2.736 2.736-1.222 2.736-2.736 2.736zm17.001-7.333c0-3.521 2.864-6.384 6.384-6.384h11.802v29.952h-18.186zm84.568 69.426c0 3.521-2.864 6.384-6.384 6.384h-71.799c-3.521 0-6.384-2.864-6.384-6.384v-40.386h18.752c2.7 0 4.907-2.207 4.907-4.907v-30.518h54.523c3.521 0 6.384 2.864 6.384 6.384v69.427z" fill="#1e1e1e"/></svg>