<svg enable-background="new 0 0 128 128" viewBox="0 0 128 128" xmlns="http://www.w3.org/2000/svg"><path d="m102.434 52.586v-13.322h-1.468c-.466-6.736-4.308-12.553-9.85-15.777-.508-.357-2.84-2.346-2.84-10.646v-4.815c0-4.432-3.594-8.026-8.026-8.026h-33.913c-4.431 0-8.026 3.594-8.026 8.026v4.815c0 8.3-2.332 10.289-2.84 10.646-5.927 3.444-9.905 9.85-9.905 17.19v46.645c0 7.477 4.143 13.994 10.248 17.396.727.658 2.497 3.059 2.497 10.44v4.815c0 4.431 3.594 8.026 8.026 8.026h33.913c4.431 0 8.026-3.594 8.026-8.026v-4.815c0-7.463 1.88-9.864 2.634-10.523 6.036-3.416 10.111-9.892 10.111-17.314v-4.731h1.413v-17.424h-1.413v-12.58zm-60.007-39.745v-4.815c0-2.154 1.756-3.91 3.91-3.91h33.913c2.154 0 3.91 1.756 3.91 3.91v4.815c0 3.594.412 6.311 1.015 8.355-1.303-.274-2.662-.412-4.047-.412h-35.67c-1.386 0-2.744.137-4.047.412.604-2.044 1.016-4.76 1.016-8.355zm41.733 102.318v4.815c0 2.154-1.756 3.91-3.91 3.91h-33.913c-2.154 0-3.91-1.756-3.91-3.91v-4.815c0-3.581-.398-6.297-.988-8.341 1.303.261 2.648.398 4.02.398h35.67c1.386 0 2.73-.137 4.033-.398-.604 2.044-1.002 4.76-1.002 8.341zm12.745-27.836c0 5.584-2.922 10.509-7.326 13.308-.357.233-.713.439-1.084.645-2.209 1.166-4.706 1.825-7.367 1.825h-35.67c-2.648 0-5.158-.659-7.353-1.825-.329-.178-.659-.37-.988-.576h-.014c-4.459-2.799-7.422-7.751-7.422-13.376v-46.647c0-8.698 7.079-15.777 15.777-15.777h35.67c2.936 0 5.68.809 8.039 2.209.055.027.096.055.137.082 4.555 2.771 7.6 7.779 7.6 13.486v46.646zm-50.761-58.993c-7.186 0-13.033 5.847-13.033 13.033v45.273c0 7.186 5.847 13.033 13.033 13.033h34.298c7.186 0 13.033-5.847 13.033-13.033v-45.273c0-7.186-5.847-13.033-13.033-13.033z" fill="#1e1e1e"/></svg>